<?xml version="1.0" encoding="UTF-8" standalone="no"?>
<!DOCTYPE svg PUBLIC "-//W3C//DTD SVG 1.1//EN" "http://www.w3.org/Graphics/SVG/1.1/DTD/svg11.dtd">
<svg width="100%" height="100%" viewBox="0 0 864 50" version="1.1" xmlns="http://www.w3.org/2000/svg" xmlns:xlink="http://www.w3.org/1999/xlink" xml:space="preserve" xmlns:serif="http://www.serif.com/" style="fill-rule:evenodd;clip-rule:evenodd;stroke-linejoin:round;stroke-miterlimit:2;">
    <g transform="matrix(1,0,0,1,-4119.01,-6274.4)">
        <g id="test-cv" serif:id="test cv" transform="matrix(1.09892,0,0,0.115047,368.268,6204.2)">
            <rect x="3413.11" y="610.164" width="786.223" height="434.607" style="fill:none;"/>
            <clipPath id="_clip1">
                <rect x="3413.11" y="610.164" width="786.223" height="434.607"/>
            </clipPath>
            <g clip-path="url(#_clip1)">
                <g transform="matrix(0.891722,0,0,8.69213,-254.418,-53927.7)">
                    <path d="M4994.55,6325.31L4994.55,6380.37L4112.86,6380.37L4112.86,6325.82C4134.02,6299.26 4159.3,6326.99 4230.84,6310.45C4274.22,6300.43 4274.49,6324.44 4331.25,6315.85C4369.2,6310.11 4373.35,6303.38 4417.98,6297.55C4433.88,6295.47 4458.83,6311.54 4475.79,6309.65C4499.71,6306.99 4509.41,6303.84 4534.54,6301.19C4548.13,6299.77 4565.03,6311.56 4579.02,6310.25C4609.11,6307.42 4636.78,6295 4667.5,6292.39C4687.62,6290.68 4707.43,6305.97 4727.48,6305.19C4737.78,6304.78 4753.42,6297.94 4763.62,6297.5C4775.48,6297 4796.3,6311.08 4807.78,6310.85C4831.41,6310.39 4862.72,6302.8 4883.5,6303.06C4903.31,6303.31 4914.99,6311.21 4930.32,6313.58C4941.66,6315.34 4954.13,6309.71 4966.21,6311.38C4975.96,6312.73 4985.35,6320.93 4994.55,6325.31Z" style="fill:white;"/>
                </g>
            </g>
        </g>
        <g id="STEAM">
        </g>
    </g>
</svg>
