<?xml version="1.0" encoding="UTF-8" standalone="no"?>
<!DOCTYPE svg PUBLIC "-//W3C//DTD SVG 1.1//EN" "http://www.w3.org/Graphics/SVG/1.1/DTD/svg11.dtd">
<svg width="100%" height="100%" viewBox="0 0 1985 2207" version="1.1" xmlns="http://www.w3.org/2000/svg" xmlns:xlink="http://www.w3.org/1999/xlink" xml:space="preserve" xmlns:serif="http://www.serif.com/" style="fill-rule:evenodd;clip-rule:evenodd;stroke-linejoin:round;stroke-miterlimit:2;">
    <g transform="matrix(1,0,0,1,-694.657,-693.656)">
        <g id="TikTok" transform="matrix(4.16667,0,0,4.16667,0,0)">
            <g id="Blue" transform="matrix(1,0,0,1,549.993,545.973)">
                <path d="M0,-277.24C20.023,-256.594 44.992,-244.012 70.157,-238.285L70.157,-253.789C46.512,-255.465 21.776,-262.905 0,-277.24M-144.639,-379.496L-144.639,-32.8C-144.639,12.621 -177.283,41.837 -216.977,41.837C-230.144,41.837 -242.648,38.76 -253.517,33.072C-239.727,50.68 -217.951,60.808 -194.072,60.808C-154.377,60.808 -121.733,31.592 -121.733,-13.868L-121.733,-360.564L-58.821,-360.564C-60.535,-366.602 -61.938,-372.913 -63.029,-379.496L-144.639,-379.496ZM-196.253,-177.945L-196.253,-195.124C-204.2,-196.448 -212.147,-196.877 -218.73,-196.877C-308.287,-196.877 -383.275,-125.006 -383.275,-35.877C-383.275,22.633 -354.799,72.65 -311.52,102.256C-341.671,72.339 -360.369,30.463 -360.369,-16.945C-360.369,-105.918 -285.615,-177.75 -196.253,-177.945" style="fill:rgb(45,204,211);fill-rule:nonzero;"/>
            </g>
            <g id="Red" transform="matrix(1,0,0,1,496.196,373.956)">
                <path d="M0,133.731C0,244.44 -84.687,303.106 -164.505,303.106C-199.058,303.106 -231.157,292.666 -257.724,274.513C-227.885,304.118 -186.826,322.038 -141.6,322.038C-61.782,322.038 22.905,263.372 22.905,152.663L22.905,-27.736C14.959,-33.112 7.323,-39.383 0,-46.707L0,133.731ZM-199.72,205.33C-209.459,193.02 -215.263,177.087 -215.263,158.389C-215.263,105.917 -174.244,78.182 -119.552,83.947L-119.552,-3.935C-127.498,-5.259 -135.445,-5.688 -142.067,-5.688L-142.457,-5.688L-142.457,64.976C-197.149,59.25 -238.169,86.946 -238.169,139.457C-238.169,170.153 -222.47,193.448 -199.72,205.33M123.954,-66.028L123.954,-0.39C87.609,-0.39 53.212,-7.324 22.905,-27.736C58.198,7.557 101.009,18.581 146.859,18.581L146.859,-62.6C139.302,-63.107 131.589,-64.236 123.954,-66.028M53.796,-104.983C34.436,-124.889 19.672,-152.313 13.673,-188.307L-5.025,-188.307C5.648,-149.391 27.619,-122.24 53.796,-104.983" style="fill:rgb(241,32,74);fill-rule:nonzero;"/>
            </g>
            <g id="White" transform="matrix(1,0,0,1,331.691,185.65)">
                <path d="M0,491.412C79.818,491.412 164.505,432.746 164.505,322.037L164.505,141.6C171.829,148.923 179.464,155.195 187.411,160.57C217.717,180.983 252.114,187.917 288.459,187.917L288.459,122.278C263.294,116.552 238.324,103.969 218.302,83.324C192.124,66.066 170.154,38.915 159.48,0L96.568,0L96.568,346.696C96.568,392.156 63.924,421.372 24.23,421.372C0.35,421.372 -21.425,411.244 -35.215,393.636C-57.965,381.755 -73.663,358.46 -73.663,327.764C-73.663,275.253 -32.644,247.556 22.048,253.282L22.048,182.619C-67.314,182.814 -142.068,254.646 -142.068,343.618C-142.068,391.026 -123.37,432.902 -93.218,462.819C-66.651,480.972 -34.553,491.412 0,491.412" style="fill:white;fill-rule:nonzero;"/>
            </g>
        </g>
    </g>
</svg>
